P3
40 40
255
0
0
0
0
0
0
0
0
0
0
0
0
0
0
0
0
0
0
0
0
0
0
0
0
0
0
0
0
0
0
0
0
0
0
0
0
0
0
0
0
0
0
0
0
0
0
0
0
0
0
0
0
0
0
0
0
0
0
0
0
0
0
0
0
0
0
0
0
0
0
0
0
0
0
0
0
0
0
0
0
0
0
0
0
0
0
0
0
0
0
0
0
0
0
0
0
0
0
0
0
0
0
0
0
0
0
0
0
0
0
0
0
0
0
0
0
0
0
0
0
0
254
0
0
254
0
0
254
0
0
254
0
0
254
0
0
254
0
0
254
0
0
254
0
0
254
0
0
254
0
0
254
0
0
254
0
0
254
0
0
254
0
0
254
0
0
254
0
0
254
0
0
254
0
0
254
0
0
254
0
0
254
0
0
254
0
0
254
0
0
254
0
0
254
0
0
254
0
0
254
0
0
254
0
0
254
0
0
254
0
0
254
0
0
254
0
0
254
0
0
254
0
0
254
0
0
254
0
0
254
0
0
254
0
0
254
0
0
254
0
255
0
38
255
0
38
255
0
38
255
0
38
255
0
38
255
0
38
255
0
38
255
0
38
255
0
38
255
0
38
255
0
38
255
0
38
255
0
38
255
0
38
255
0
38
255
0
38
255
0
38
255
0
38
255
0
38
255
0
38
255
0
38
255
0
38
255
0
38
255
0
38
255
0
38
255
0
38
255
0
38
255
0
38
255
0
38
255
0
38
255
0
38
255
0
38
255
0
38
255
0
38
255
0
38
255
0
38
255
0
38
255
0
38
255
0
38
255
0
38
33
0
254
33
0
254
33
0
254
33
0
254
33
0
254
33
0
254
33
0
254
33
0
254
33
0
254
33
0
254
33
0
254
33
0
254
33
0
254
33
0
254
33
0
254
33
0
254
33
0
254
33
0
254
33
0
254
33
0
254
33
0
254
33
0
254
33
0
254
33
0
254
33
0
254
33
0
254
33
0
254
33
0
254
33
0
254
33
0
254
33
0
254
33
0
254
33
0
254
33
0
254
33
0
254
33
0
254
33
0
254
33
0
254
33
0
254
33
0
254
0
0
0
0
0
0
0
0
0
0
0
0
0
0
0
0
0
0
0
0
0
0
0
0
0
0
0
0
0
0
0
0
0
0
0
0
0
0
0
0
0
0
0
0
0
0
0
0
0
0
0
0
0
0
0
0
0
0
0
0
0
0
0
0
0
0
0
0
0
0
0
0
0
0
0
0
0
0
0
0
0
0
0
0
0
0
0
0
0
0
0
0
0
0
0
0
0
0
0
0
0
0
0
0
0
0
0
0
0
0
0
0
0
0
0
0
0
0
0
0
0
254
0
0
254
0
0
254
0
0
254
0
0
254
0
0
254
0
0
254
0
0
254
0
0
254
0
0
254
0
0
254
0
0
254
0
0
254
0
0
254
0
0
254
0
0
254
0
0
254
0
0
254
0
0
254
0
0
254
0
0
254
0
0
254
0
0
254
0
0
254
0
0
254
0
0
254
0
0
254
0
0
254
0
0
254
0
0
254
0
0
254
0
0
254
0
0
254
0
0
254
0
0
254
0
0
254
0
0
254
0
0
254
0
0
254
0
0
254
0
255
0
38
255
0
38
255
0
38
255
0
38
255
0
38
255
0
38
255
0
38
255
0
38
255
0
38
255
0
38
255
0
38
255
0
38
255
0
38
255
0
38
255
0
38
255
0
38
255
0
38
255
0
38
255
0
38
255
0
38
255
0
38
255
0
38
255
0
38
255
0
38
255
0
38
255
0
38
255
0
38
255
0
38
255
0
38
255
0
38
255
0
38
255
0
38
255
0
38
255
0
38
255
0
38
255
0
38
255
0
38
255
0
38
255
0
38
255
0
38
33
0
254
33
0
254
33
0
254
33
0
254
33
0
254
33
0
254
33
0
254
33
0
254
33
0
254
33
0
254
33
0
254
33
0
254
33
0
254
33
0
254
33
0
254
33
0
254
33
0
254
33
0
254
33
0
254
33
0
254
33
0
254
33
0
254
33
0
254
33
0
254
33
0
254
33
0
254
33
0
254
33
0
254
33
0
254
33
0
254
33
0
254
33
0
254
33
0
254
33
0
254
33
0
254
33
0
254
33
0
254
33
0
254
33
0
254
33
0
254
0
0
0
0
0
0
0
0
0
0
0
0
0
0
0
0
0
0
0
0
0
0
0
0
0
0
0
0
0
0
0
0
0
0
0
0
0
0
0
0
0
0
0
0
0
0
0
0
0
0
0
0
0
0
0
0
0
0
0
0
0
0
0
0
0
0
0
0
0
0
0
0
0
0
0
0
0
0
0
0
0
0
0
0
0
0
0
0
0
0
0
0
0
0
0
0
0
0
0
0
0
0
0
0
0
0
0
0
0
0
0
0
0
0
0
0
0
0
0
0
0
254
0
0
254
0
0
254
0
0
254
0
0
254
0
0
254
0
0
254
0
0
254
0
0
254
0
0
254
0
0
254
0
0
254
0
0
254
0
0
254
0
0
254
0
0
254
0
0
254
0
0
254
0
0
254
0
0
254
0
0
254
0
0
254
0
0
254
0
0
254
0
0
254
0
0
254
0
0
254
0
0
254
0
0
254
0
0
254
0
0
254
0
0
254
0
0
254
0
0
254
0
0
254
0
0
254
0
0
254
0
0
254
0
0
254
0
0
254
0
255
0
38
255
0
38
255
0
38
255
0
38
255
0
38
255
0
38
255
0
38
255
0
38
255
0
38
255
0
38
255
0
38
255
0
38
255
0
38
255
0
38
255
0
38
255
0
38
255
0
38
255
0
38
255
0
38
255
0
38
255
0
38
255
0
38
255
0
38
255
0
38
255
0
38
255
0
38
255
0
38
255
0
38
255
0
38
255
0
38
255
0
38
255
0
38
255
0
38
255
0
38
255
0
38
255
0
38
255
0
38
255
0
38
255
0
38
255
0
38
33
0
254
33
0
254
33
0
254
33
0
254
33
0
254
33
0
254
33
0
254
33
0
254
33
0
254
33
0
254
33
0
254
33
0
254
33
0
254
33
0
254
33
0
254
33
0
254
33
0
254
33
0
254
33
0
254
33
0
254
33
0
254
33
0
254
33
0
254
33
0
254
33
0
254
33
0
254
33
0
254
33
0
254
33
0
254
33
0
254
33
0
254
33
0
254
33
0
254
33
0
254
33
0
254
33
0
254
33
0
254
33
0
254
33
0
254
33
0
254
0
0
0
0
0
0
0
0
0
0
0
0
0
0
0
0
0
0
0
0
0
0
0
0
0
0
0
0
0
0
0
0
0
0
0
0
0
0
0
0
0
0
0
0
0
0
0
0
0
0
0
0
0
0
0
0
0
0
0
0
0
0
0
0
0
0
0
0
0
0
0
0
0
0
0
0
0
0
0
0
0
0
0
0
0
0
0
0
0
0
0
0
0
0
0
0
0
0
0
0
0
0
0
0
0
0
0
0
0
0
0
0
0
0
0
0
0
0
0
0
0
254
0
0
254
0
0
254
0
0
254
0
0
254
0
0
254
0
0
254
0
0
254
0
0
254
0
0
254
0
0
254
0
0
254
0
0
254
0
0
254
0
0
254
0
0
254
0
0
254
0
0
254
0
0
254
0
0
254
0
0
254
0
0
254
0
0
254
0
0
254
0
0
254
0
0
254
0
0
254
0
0
254
0
0
254
0
0
254
0
0
254
0
0
254
0
0
254
0
0
254
0
0
254
0
0
254
0
0
254
0
0
254
0
0
254
0
0
254
0
255
0
38
255
0
38
255
0
38
255
0
38
255
0
38
255
0
38
255
0
38
255
0
38
255
0
38
255
0
38
255
0
38
255
0
38
255
0
38
255
0
38
255
0
38
255
0
38
255
0
38
255
0
38
255
0
38
255
0
38
255
0
38
255
0
38
255
0
38
255
0
38
255
0
38
255
0
38
255
0
38
255
0
38
255
0
38
255
0
38
255
0
38
255
0
38
255
0
38
255
0
38
255
0
38
255
0
38
255
0
38
255
0
38
255
0
38
255
0
38
33
0
254
33
0
254
33
0
254
33
0
254
33
0
254
33
0
254
33
0
254
33
0
254
33
0
254
33
0
254
33
0
254
33
0
254
33
0
254
33
0
254
33
0
254
33
0
254
33
0
254
33
0
254
33
0
254
33
0
254
33
0
254
33
0
254
33
0
254
33
0
254
33
0
254
33
0
254
33
0
254
33
0
254
33
0
254
33
0
254
33
0
254
33
0
254
33
0
254
33
0
254
33
0
254
33
0
254
33
0
254
33
0
254
33
0
254
33
0
254
0
0
0
0
0
0
0
0
0
0
0
0
0
0
0
0
0
0
0
0
0
0
0
0
0
0
0
0
0
0
0
0
0
0
0
0
0
0
0
0
0
0
0
0
0
0
0
0
0
0
0
0
0
0
0
0
0
0
0
0
0
0
0
0
0
0
0
0
0
0
0
0
0
0
0
0
0
0
0
0
0
0
0
0
0
0
0
0
0
0
0
0
0
0
0
0
0
0
0
0
0
0
0
0
0
0
0
0
0
0
0
0
0
0
0
0
0
0
0
0
0
254
0
0
254
0
0
254
0
0
254
0
0
254
0
0
254
0
0
254
0
0
254
0
0
254
0
0
254
0
0
254
0
0
254
0
0
254
0
0
254
0
0
254
0
0
254
0
0
254
0
0
254
0
0
254
0
0
254
0
0
254
0
0
254
0
0
254
0
0
254
0
0
254
0
0
254
0
0
254
0
0
254
0
0
254
0
0
254
0
0
254
0
0
254
0
0
254
0
0
254
0
0
254
0
0
254
0
0
254
0
0
254
0
0
254
0
0
254
0
255
0
38
255
0
38
255
0
38
255
0
38
255
0
38
255
0
38
255
0
38
255
0
38
255
0
38
255
0
38
255
0
38
255
0
38
255
0
38
255
0
38
255
0
38
255
0
38
255
0
38
255
0
38
255
0
38
255
0
38
255
0
38
255
0
38
255
0
38
255
0
38
255
0
38
255
0
38
255
0
38
255
0
38
255
0
38
255
0
38
255
0
38
255
0
38
255
0
38
255
0
38
255
0
38
255
0
38
255
0
38
255
0
38
255
0
38
255
0
38
33
0
254
33
0
254
33
0
254
33
0
254
33
0
254
33
0
254
33
0
254
33
0
254
33
0
254
33
0
254
33
0
254
33
0
254
33
0
254
33
0
254
33
0
254
33
0
254
33
0
254
33
0
254
33
0
254
33
0
254
33
0
254
33
0
254
33
0
254
33
0
254
33
0
254
33
0
254
33
0
254
33
0
254
33
0
254
33
0
254
33
0
254
33
0
254
33
0
254
33
0
254
33
0
254
33
0
254
33
0
254
33
0
254
33
0
254
33
0
254
0
0
0
0
0
0
0
0
0
0
0
0
0
0
0
0
0
0
0
0
0
0
0
0
0
0
0
0
0
0
0
0
0
0
0
0
0
0
0
0
0
0
0
0
0
0
0
0
0
0
0
0
0
0
0
0
0
0
0
0
0
0
0
0
0
0
0
0
0
0
0
0
0
0
0
0
0
0
0
0
0
0
0
0
0
0
0
0
0
0
0
0
0
0
0
0
0
0
0
0
0
0
0
0
0
0
0
0
0
0
0
0
0
0
0
0
0
0
0
0
0
254
0
0
254
0
0
254
0
0
254
0
0
254
0
0
254
0
0
254
0
0
254
0
0
254
0
0
254
0
0
254
0
0
254
0
0
254
0
0
254
0
0
254
0
0
254
0
0
254
0
0
254
0
0
254
0
0
254
0
0
254
0
0
254
0
0
254
0
0
254
0
0
254
0
0
254
0
0
254
0
0
254
0
0
254
0
0
254
0
0
254
0
0
254
0
0
254
0
0
254
0
0
254
0
0
254
0
0
254
0
0
254
0
0
254
0
0
254
0
255
0
38
255
0
38
255
0
38
255
0
38
255
0
38
255
0
38
255
0
38
255
0
38
255
0
38
255
0
38
255
0
38
255
0
38
255
0
38
255
0
38
255
0
38
255
0
38
255
0
38
255
0
38
255
0
38
255
0
38
255
0
38
255
0
38
255
0
38
255
0
38
255
0
38
255
0
38
255
0
38
255
0
38
255
0
38
255
0
38
255
0
38
255
0
38
255
0
38
255
0
38
255
0
38
255
0
38
255
0
38
255
0
38
255
0
38
255
0
38
33
0
254
33
0
254
33
0
254
33
0
254
33
0
254
33
0
254
33
0
254
33
0
254
33
0
254
33
0
254
33
0
254
33
0
254
33
0
254
33
0
254
33
0
254
33
0
254
33
0
254
33
0
254
33
0
254
33
0
254
33
0
254
33
0
254
33
0
254
33
0
254
33
0
254
33
0
254
33
0
254
33
0
254
33
0
254
33
0
254
33
0
254
33
0
254
33
0
254
33
0
254
33
0
254
33
0
254
33
0
254
33
0
254
33
0
254
33
0
254
0
0
0
0
0
0
0
0
0
0
0
0
0
0
0
0
0
0
0
0
0
0
0
0
0
0
0
0
0
0
0
0
0
0
0
0
0
0
0
0
0
0
0
0
0
0
0
0
0
0
0
0
0
0
0
0
0
0
0
0
0
0
0
0
0
0
0
0
0
0
0
0
0
0
0
0
0
0
0
0
0
0
0
0
0
0
0
0
0
0
0
0
0
0
0
0
0
0
0
0
0
0
0
0
0
0
0
0
0
0
0
0
0
0
0
0
0
0
0
0
0
254
0
0
254
0
0
254
0
0
254
0
0
254
0
0
254
0
0
254
0
0
254
0
0
254
0
0
254
0
0
254
0
0
254
0
0
254
0
0
254
0
0
254
0
0
254
0
0
254
0
0
254
0
0
254
0
0
254
0
0
254
0
0
254
0
0
254
0
0
254
0
0
254
0
0
254
0
0
254
0
0
254
0
0
254
0
0
254
0
0
254
0
0
254
0
0
254
0
0
254
0
0
254
0
0
254
0
0
254
0
0
254
0
0
254
0
0
254
0
255
0
38
255
0
38
255
0
38
255
0
38
255
0
38
255
0
38
255
0
38
255
0
38
255
0
38
255
0
38
255
0
38
255
0
38
255
0
38
255
0
38
255
0
38
255
0
38
255
0
38
255
0
38
255
0
38
255
0
38
255
0
38
255
0
38
255
0
38
255
0
38
255
0
38
255
0
38
255
0
38
255
0
38
255
0
38
255
0
38
255
0
38
255
0
38
255
0
38
255
0
38
255
0
38
255
0
38
255
0
38
255
0
38
255
0
38
255
0
38
33
0
254
33
0
254
33
0
254
33
0
254
33
0
254
33
0
254
33
0
254
33
0
254
33
0
254
33
0
254
33
0
254
33
0
254
33
0
254
33
0
254
33
0
254
33
0
254
33
0
254
33
0
254
33
0
254
33
0
254
33
0
254
33
0
254
33
0
254
33
0
254
33
0
254
33
0
254
33
0
254
33
0
254
33
0
254
33
0
254
33
0
254
33
0
254
33
0
254
33
0
254
33
0
254
33
0
254
33
0
254
33
0
254
33
0
254
33
0
254
0
0
0
0
0
0
0
0
0
0
0
0
0
0
0
0
0
0
0
0
0
0
0
0
0
0
0
0
0
0
0
0
0
0
0
0
0
0
0
0
0
0
0
0
0
0
0
0
0
0
0
0
0
0
0
0
0
0
0
0
0
0
0
0
0
0
0
0
0
0
0
0
0
0
0
0
0
0
0
0
0
0
0
0
0
0
0
0
0
0
0
0
0
0
0
0
0
0
0
0
0
0
0
0
0
0
0
0
0
0
0
0
0
0
0
0
0
0
0
0
0
254
0
0
254
0
0
254
0
0
254
0
0
254
0
0
254
0
0
254
0
0
254
0
0
254
0
0
254
0
0
254
0
0
254
0
0
254
0
0
254
0
0
254
0
0
254
0
0
254
0
0
254
0
0
254
0
0
254
0
0
254
0
0
254
0
0
254
0
0
254
0
0
254
0
0
254
0
0
254
0
0
254
0
0
254
0
0
254
0
0
254
0
0
254
0
0
254
0
0
254
0
0
254
0
0
254
0
0
254
0
0
254
0
0
254
0
0
254
0
255
0
38
255
0
38
255
0
38
255
0
38
255
0
38
255
0
38
255
0
38
255
0
38
255
0
38
255
0
38
255
0
38
255
0
38
255
0
38
255
0
38
255
0
38
255
0
38
255
0
38
255
0
38
255
0
38
255
0
38
255
0
38
255
0
38
255
0
38
255
0
38
255
0
38
255
0
38
255
0
38
255
0
38
255
0
38
255
0
38
255
0
38
255
0
38
255
0
38
255
0
38
255
0
38
255
0
38
255
0
38
255
0
38
255
0
38
255
0
38
33
0
254
33
0
254
33
0
254
33
0
254
33
0
254
33
0
254
33
0
254
33
0
254
33
0
254
33
0
254
33
0
254
33
0
254
33
0
254
33
0
254
33
0
254
33
0
254
33
0
254
33
0
254
33
0
254
33
0
254
33
0
254
33
0
254
33
0
254
33
0
254
33
0
254
33
0
254
33
0
254
33
0
254
33
0
254
33
0
254
33
0
254
33
0
254
33
0
254
33
0
254
33
0
254
33
0
254
33
0
254
33
0
254
33
0
254
33
0
254
0
0
0
0
0
0
0
0
0
0
0
0
0
0
0
0
0
0
0
0
0
0
0
0
0
0
0
0
0
0
0
0
0
0
0
0
0
0
0
0
0
0
0
0
0
0
0
0
0
0
0
0
0
0
0
0
0
0
0
0
0
0
0
0
0
0
0
0
0
0
0
0
0
0
0
0
0
0
0
0
0
0
0
0
0
0
0
0
0
0
0
0
0
0
0
0
0
0
0
0
0
0
0
0
0
0
0
0
0
0
0
0
0
0
0
0
0
0
0
0
0
254
0
0
254
0
0
254
0
0
254
0
0
254
0
0
254
0
0
254
0
0
254
0
0
254
0
0
254
0
0
254
0
0
254
0
0
254
0
0
254
0
0
254
0
0
254
0
0
254
0
0
254
0
0
254
0
0
254
0
0
254
0
0
254
0
0
254
0
0
254
0
0
254
0
0
254
0
0
254
0
0
254
0
0
254
0
0
254
0
0
254
0
0
254
0
0
254
0
0
254
0
0
254
0
0
254
0
0
254
0
0
254
0
0
254
0
0
254
0
255
0
38
255
0
38
255
0
38
255
0
38
255
0
38
255
0
38
255
0
38
255
0
38
255
0
38
255
0
38
255
0
38
255
0
38
255
0
38
255
0
38
255
0
38
255
0
38
255
0
38
255
0
38
255
0
38
255
0
38
255
0
38
255
0
38
255
0
38
255
0
38
255
0
38
255
0
38
255
0
38
255
0
38
255
0
38
255
0
38
255
0
38
255
0
38
255
0
38
255
0
38
255
0
38
255
0
38
255
0
38
255
0
38
255
0
38
255
0
38
33
0
254
33
0
254
33
0
254
33
0
254
33
0
254
33
0
254
33
0
254
33
0
254
33
0
254
33
0
254
33
0
254
33
0
254
33
0
254
33
0
254
33
0
254
33
0
254
33
0
254
33
0
254
33
0
254
33
0
254
33
0
254
33
0
254
33
0
254
33
0
254
33
0
254
33
0
254
33
0
254
33
0
254
33
0
254
33
0
254
33
0
254
33
0
254
33
0
254
33
0
254
33
0
254
33
0
254
33
0
254
33
0
254
33
0
254
33
0
254
0
0
0
0
0
0
0
0
0
0
0
0
0
0
0
0
0
0
0
0
0
0
0
0
0
0
0
0
0
0
0
0
0
0
0
0
0
0
0
0
0
0
0
0
0
0
0
0
0
0
0
0
0
0
0
0
0
0
0
0
0
0
0
0
0
0
0
0
0
0
0
0
0
0
0
0
0
0
0
0
0
0
0
0
0
0
0
0
0
0
0
0
0
0
0
0
0
0
0
0
0
0
0
0
0
0
0
0
0
0
0
0
0
0
0
0
0
0
0
0
0
254
0
0
254
0
0
254
0
0
254
0
0
254
0
0
254
0
0
254
0
0
254
0
0
254
0
0
254
0
0
254
0
0
254
0
0
254
0
0
254
0
0
254
0
0
254
0
0
254
0
0
254
0
0
254
0
0
254
0
0
254
0
0
254
0
0
254
0
0
254
0
0
254
0
0
254
0
0
254
0
0
254
0
0
254
0
0
254
0
0
254
0
0
254
0
0
254
0
0
254
0
0
254
0
0
254
0
0
254
0
0
254
0
0
254
0
0
254
0
255
0
38
255
0
38
255
0
38
255
0
38
255
0
38
255
0
38
255
0
38
255
0
38
255
0
38
255
0
38
255
0
38
255
0
38
255
0
38
255
0
38
255
0
38
255
0
38
255
0
38
255
0
38
255
0
38
255
0
38
255
0
38
255
0
38
255
0
38
255
0
38
255
0
38
255
0
38
255
0
38
255
0
38
255
0
38
255
0
38
255
0
38
255
0
38
255
0
38
255
0
38
255
0
38
255
0
38
255
0
38
255
0
38
255
0
38
255
0
38
33
0
254
33
0
254
33
0
254
33
0
254
33
0
254
33
0
254
33
0
254
33
0
254
33
0
254
33
0
254
33
0
254
33
0
254
33
0
254
33
0
254
33
0
254
33
0
254
33
0
254
33
0
254
33
0
254
33
0
254
33
0
254
33
0
254
33
0
254
33
0
254
33
0
254
33
0
254
33
0
254
33
0
254
33
0
254
33
0
254
33
0
254
33
0
254
33
0
254
33
0
254
33
0
254
33
0
254
33
0
254
33
0
254
33
0
254
33
0
254
